<svg xmlns="http://www.w3.org/2000/svg" width="448" height="448"><path d="M224.05 109.138c-63.565 0-114.836 51.283-114.836 114.862 0 63.579 51.271 114.862 114.836 114.862 63.564 0 114.836-51.283 114.836-114.862 0-63.579-51.272-114.862-114.836-114.862zm0 189.537c-41.077 0-74.658-33.489-74.658-74.675s33.481-74.675 74.658-74.675 74.658 33.489 74.658 74.675-33.58 74.675-74.658 74.675zM370.368 104.44c0 14.895-11.993 26.791-26.785 26.791-14.891 0-26.785-11.996-26.785-26.791s11.994-26.791 26.785-26.791c14.792 0 26.785 11.996 26.785 26.791zm76.058 27.19c-1.7-35.887-9.895-67.676-36.18-93.868-26.185-26.19-57.968-34.388-93.848-36.188-36.979-2.099-147.817-2.099-184.796 0-35.78 1.7-67.563 9.897-93.848 36.088-26.285 26.192-34.38 57.981-36.18 93.869-2.099 36.988-2.099 147.85 0 184.838 1.7 35.888 9.895 67.677 36.18 93.869 26.285 26.19 57.968 34.388 93.848 36.188 36.979 2.099 147.817 2.099 184.796 0 35.88-1.7 67.663-9.897 93.848-36.188 26.185-26.192 34.38-57.98 36.18-93.869 2.099-36.988 2.099-147.75 0-184.738zm-47.773 224.426c-7.796 19.593-22.888 34.688-42.577 42.586-29.483 11.696-99.444 8.997-132.026 8.997-32.582 0-102.643 2.599-132.026-8.997-19.59-7.798-34.681-22.893-42.577-42.586-11.693-29.49-8.995-99.467-8.995-132.056 0-32.59-2.598-102.666 8.995-132.056 7.796-19.593 22.888-34.688 42.577-42.586 29.483-11.696 99.444-8.997 132.026-8.997 32.582 0 102.643-2.599 132.026 8.997 19.59 7.798 34.68 22.893 42.577 42.586 11.693 29.49 8.995 99.467 8.995 132.056 0 32.59 2.698 102.666-8.995 132.056z" style="stroke-width:.999554;fill:#fff"/></svg>