<svg xmlns="http://www.w3.org/2000/svg" width="250" height="150" viewBox="0 0 66.146 39.688"><path style="fill:#d5e5ff;fill-opacity:1;stroke:none;stroke-width:.263364" d="M0 0h66.146v39.688H0z"/><g aria-label="Фото проекта" style="font-style:normal;font-weight:400;font-size:7.05556px;line-height:1.25;font-family:sans-serif;text-align:center;text-anchor:middle;fill:gray;fill-opacity:1;stroke:none;stroke-width:.264583"><path d="M29.375 12.745q0 .482-.155.858-.151.372-.424.623-.292.272-.713.434-.42.159-.895.17v.571h-.68v-.572q-.46-.01-.884-.165t-.724-.438q-.272-.255-.427-.627-.152-.372-.152-.854 0-.469.148-.82.149-.352.41-.613.28-.28.696-.441.42-.162.934-.176v-.534h.679v.534q.51.01.933.18.424.168.696.437.259.251.407.61.151.358.151.823zm-.71-.028q0-.34-.11-.627-.11-.286-.313-.482-.2-.193-.445-.283-.244-.09-.61-.096v3.066q.324-.007.59-.103.265-.1.437-.262.224-.207.338-.507.114-.3.114-.706zm-2.156 1.578V11.23q-.365.003-.61.096-.244.093-.444.283-.2.19-.314.482-.11.293-.11.627 0 .386.114.7.117.313.337.513.17.155.434.258.27.104.593.107zM33.654 13.423q0 .941-.482 1.485-.483.545-1.292.545-.817 0-1.299-.545-.479-.544-.479-1.485 0-.94.479-1.484.482-.548 1.299-.548.81 0 1.292.548.482.544.482 1.484zm-.668 0q0-.747-.293-1.109-.293-.365-.813-.365-.527 0-.82.365-.29.362-.29 1.11 0 .723.293 1.098.293.373.817.373.517 0 .81-.37.296-.371.296-1.102zM37.485 12.066h-1.392v3.28h-.648v-3.28h-1.391v-.568h3.431zM41.437 13.423q0 .941-.483 1.485-.482.545-1.292.545-.816 0-1.299-.545-.478-.544-.478-1.485 0-.94.478-1.484.483-.548 1.3-.548.809 0 1.291.548.483.544.483 1.484zm-.669 0q0-.747-.293-1.109-.293-.365-.813-.365-.527 0-.82.365-.289.362-.289 1.11 0 .723.293 1.098.293.373.816.373.517 0 .81-.37.296-.371.296-1.102zM22.094 24.165h-.648v-3.29h-1.925v3.29h-.648v-3.848h3.221zM26.755 22.195q0 .468-.134.858-.134.385-.38.654-.226.255-.537.396-.306.138-.65.138-.3 0-.545-.065-.241-.066-.493-.204v1.613h-.647v-5.268h.647v.403q.259-.217.58-.362.323-.148.688-.148.696 0 1.082.527.39.524.39 1.458zm-.668.017q0-.696-.238-1.04-.238-.345-.73-.345-.28 0-.562.12-.282.121-.54.318v2.18q.275.124.471.17.2.044.452.044.54 0 .844-.365.303-.366.303-1.082zM31.044 22.243q0 .94-.482 1.485-.482.544-1.292.544-.816 0-1.299-.544-.479-.545-.479-1.485 0-.94.48-1.485.482-.548 1.298-.548.81 0 1.292.548.482.544.482 1.485zm-.668 0q0-.748-.293-1.11-.293-.365-.813-.365-.527 0-.82.366-.29.361-.29 1.109 0 .723.294 1.099.292.372.816.372.517 0 .81-.369.296-.372.296-1.102zM35.268 22.308h-2.835q0 .355.107.62.106.262.292.431.18.165.424.248.248.083.544.083.393 0 .79-.155.399-.159.568-.31h.034v.706q-.327.138-.668.23-.341.094-.717.094-.957 0-1.495-.517-.537-.52-.537-1.474 0-.944.513-1.499.517-.555 1.357-.555.779 0 1.2.455.423.455.423 1.292zm-.63-.496q-.004-.51-.259-.789-.251-.279-.768-.279-.52 0-.83.307-.307.307-.348.761zM39.723 24.165h-.848l-1.598-1.764h-.352v1.764h-.648v-3.848h.648v1.66q.32 0 .517-.113.196-.117.334-.372.048-.093.093-.196l.093-.204q.18-.389.448-.582.269-.193.772-.193h.296v.558h-.286q-.272 0-.427.117-.152.114-.276.403-.138.324-.293.486-.151.159-.323.241zM43.254 20.886h-1.392v3.28h-.648v-3.28h-1.392v-.569h3.432zM46.916 24.165h-.644v-.41q-.086.059-.235.166-.144.103-.282.165-.162.08-.372.131-.21.055-.493.055-.52 0-.882-.344-.361-.345-.361-.879 0-.437.186-.706.19-.272.537-.427.351-.155.844-.21.493-.056 1.058-.083v-.1q0-.22-.08-.365-.075-.145-.22-.228-.138-.079-.33-.106-.194-.028-.404-.028-.255 0-.568.069-.314.065-.648.193h-.034V20.4q.19-.052.547-.114.359-.062.707-.062.406 0 .706.069.303.065.524.227.217.159.33.41.114.252.114.624zm-.644-.947v-1.072q-.297.018-.7.052-.4.035-.634.1-.279.08-.45.248-.173.165-.173.458 0 .331.2.5.2.165.61.165.34 0 .623-.13.283-.135.524-.321z" style="font-size:7.05556px;text-align:center;text-anchor:middle;fill:gray;stroke-width:.264583"/></g></svg>